# xmcd CD database file
#
# Track frame offsets:
#	150
#	5700
#	25387
#	51637
#	64547
#	85091
#	99459
#	112866
#	125474
#	143405
#	154067
#	167880
#
# Disc length: 2414 seconds
#
# Revision: 0
# Processed by: cddbd v1.5.2PL0 Copyright (c) Steve Scherf et al.
# Submitted via: CDex 1.70beta2
#
DISCID=97096c0c
DTITLE=THRASH BOMBZ - MISSION OF BLOOD
DYEAR=2014
DGENRE=Thrash Metal
TTITLE0=MOSH TANK
TTITLE1=CITY GRAVE
TTITLE2=THRASH BOMBZ
TTITLE3=HUMAN OBLITERATION
TTITLE4=MISSION OF BLOOD
TTITLE5=COMMAND OF INJURY
TTITLE6=DEAD BODY HANGED
TTITLE7=FEAR OF THE LIGHT
TTITLE8=NECROSIS
TTITLE9=A.H.B
TTITLE10=THE CURSE
TTITLE11=TOXIC WASTE
EXTD=YEAR: 2014
EXTT0=
EXTT1=
EXTT2=
EXTT3=
EXTT4=
EXTT5=
EXTT6=
EXTT7=
EXTT8=
EXTT9=
EXTT10=
EXTT11=
PLAYORDER=
